<svg data-v-fde0c5aa="" xmlns="http://www.w3.org/2000/svg" viewBox="0 0 300 300" class="iconLeftSlogan"><!----><defs data-v-fde0c5aa=""><!----></defs><rect data-v-fde0c5aa="" fill="#9D816E" x="0" y="0" width="300px" height="300px" class="logo-background-square"></rect><defs data-v-fde0c5aa=""><!----></defs><g data-v-fde0c5aa="" id="5e30b6ee-d6dc-447c-b96b-5b3789722746" fill="#ffffff" transform="matrix(5.78533797948203,0,0,5.78533797948203,143.9461232212943,69.01390310210206)"><path d="M8.30 7.59L9.42 7.38L9.51 7.49Q9.30 11.14 9.30 17.09L9.30 17.09L8.79 17.09Q8.29 16.52 7.85 15.97L7.85 15.97L5.63 13.20Q4.24 11.48 2.35 9.32L2.35 9.32Q2.26 9.19 2.20 9.19L2.20 9.19Q2.10 9.19 2.10 9.43L2.10 9.43Q2.10 11.56 2.43 16.74L2.43 16.74L1.46 17.16L1.33 17.04Q1.51 13.43 1.51 10.38L1.51 10.38Q1.51 10.08 1.50 9.48Q1.50 8.88 1.50 8.58L1.50 8.58Q1.50 8.55 1.50 8.49Q1.50 8.43 1.50 8.41Q1.50 8.39 1.48 8.35Q1.47 8.30 1.44 8.28Q1.41 8.26 1.35 8.22Q1.29 8.18 1.21 8.16Q1.12 8.13 0.99 8.09Q0.87 8.05 0.70 8.00Q0.53 7.96 0.31 7.91L0.31 7.91L0.25 7.53L0.36 7.43L2.63 7.43Q3.98 9.21 4.67 10.12Q5.37 11.03 6.50 12.44Q7.64 13.86 8.40 14.67L8.40 14.67Q8.51 14.78 8.55 14.78L8.55 14.78Q8.64 14.78 8.64 14.67L8.64 14.67Q8.64 12.54 8.30 7.59L8.30 7.59ZM12.69 9.04L12.69 9.04L12.69 14.71Q12.73 16.13 12.95 16.34L12.95 16.34Q13.13 16.53 14.05 16.53L14.05 16.53Q15.14 16.53 15.98 16.26Q16.82 15.99 17.34 15.55Q17.85 15.11 18.17 14.49Q18.50 13.86 18.62 13.21Q18.74 12.56 18.74 11.81L18.74 11.81Q18.74 11.04 18.50 10.20Q18.25 9.35 17.72 8.82L17.72 8.82Q17.25 8.36 16.32 8.21Q15.38 8.06 13.82 8.06L13.82 8.06Q13.00 8.06 12.89 8.11L12.89 8.11Q12.87 8.12 12.83 8.13Q12.78 8.15 12.77 8.16Q12.76 8.18 12.74 8.23Q12.71 8.28 12.71 8.37Q12.71 8.47 12.70 8.63Q12.69 8.79 12.69 9.04ZM14.44 17.06L11.21 17.06L11.21 16.92Q11.41 16.77 11.46 16.59Q11.50 16.42 11.52 15.98L11.52 15.98L11.52 9.06Q11.52 8.83 11.49 8.41L11.49 8.41Q11.48 8.31 11.41 8.23Q11.34 8.15 11.21 8.09Q11.07 8.04 10.96 8.00Q10.86 7.97 10.68 7.93Q10.51 7.88 10.44 7.86L10.44 7.86L10.44 7.59L10.53 7.49L14.92 7.49Q15.83 7.49 16.57 7.59Q17.30 7.70 17.83 7.89Q18.37 8.07 18.76 8.37Q19.15 8.66 19.40 9.00Q19.65 9.34 19.80 9.79Q19.95 10.23 20.00 10.69Q20.06 11.14 20.06 11.70L20.06 11.70Q20.06 13.09 19.76 14.03Q19.46 14.98 18.67 15.82L18.67 15.82Q17.53 17.06 14.44 17.06L14.44 17.06Z"></path></g><defs data-v-fde0c5aa=""><!----></defs><g data-v-fde0c5aa="" id="a936901e-c3af-4dd7-a569-e00aabd051bd" stroke="none" fill="#4F5254" transform="matrix(1.220733839376386,0,0,1.220733839376386,24.15121280552634,89.07744448443967)"><g clip-rule="evenodd"><path d="M12.983 10.59l17.018 88.223-5.872-59.049 29.021-1.892-.054-9.883L64.549 1 53.622 18.977z"></path><path d="M59.389 54.548l5.16-53.541-8.74 39.716-19.612 1.045 1.57 20.462-7.766 36.583 12.057-39.899z"></path><path d="M62.8 67.182l.549-10.453-15.979 3.755-.032 11.797-17.337 26.532 21.68-27.616zM65.711 62.394l14.841-4.731 1.509-12.532-15.899 2.095zM72.07 44.502l10.988-1.417 1.581-10.278-8.079-.373L64.549 1l8.43 30.967z"></path><path d="M87.413 31.294l1.256-9.506-9.544-2.694L64.549 1l14.483 22.437-.422 7z"></path></g></g><defs data-v-fde0c5aa=""><!----></defs><g data-v-fde0c5aa="" id="33531e07-bda2-43f3-a2da-388703b70cbd" fill="#ffffff" transform="matrix(0.4925331603479378,0,0,0.4925331603479378,145.1363404821782,176.86195573526052)"><path d="M0.52 12.39C0.52 12.63 0.53 12.68 0.73 12.68C0.91 12.68 1.29 12.64 1.90 12.64C2.53 12.64 3.09 12.68 3.42 12.68C3.58 12.68 3.58 12.61 3.58 12.40C3.58 12.24 3.58 12.18 3.42 12.18L2.21 12.18C2.17 12.18 2.16 11.54 2.16 10.79C2.16 9.46 2.17 7.48 2.17 5.99C2.17 5.25 2.17 4.84 2.18 4.28C2.18 4.02 2.25 4.14 2.38 4.28L9.27 12.66C9.35 12.75 9.44 12.89 9.55 12.89C9.66 12.89 9.73 12.77 9.73 12.54C9.73 12.39 9.90 6.65 9.91 4.48C9.91 4.06 9.94 3.70 9.97 3.70L10.60 3.70C10.82 3.70 10.88 3.68 10.88 3.49C10.88 3.25 10.88 3.19 10.68 3.19C10.49 3.19 10.05 3.23 9.49 3.23C8.88 3.23 8.08 3.19 7.98 3.19C7.81 3.19 7.81 3.26 7.81 3.47C7.81 3.64 7.81 3.70 7.98 3.70L9.28 3.70C9.30 3.70 9.30 4.33 9.30 4.44C9.30 5.85 9.32 8.33 9.32 9.70L9.32 10.29C9.32 10.57 9.31 10.65 9.09 10.37L3.40 3.39C3.29 3.25 3.26 3.19 3.09 3.19C3.01 3.19 2.63 3.23 2.32 3.23C2.03 3.23 0.95 3.19 0.76 3.19C0.59 3.19 0.56 3.26 0.56 3.47C0.56 3.64 0.59 3.70 0.76 3.70L1.67 3.70C1.67 4.17 1.62 8.53 1.55 10.79C1.53 11.69 1.54 12.18 1.43 12.18L0.78 12.18C0.56 12.18 0.52 12.19 0.52 12.39ZM18.77 12.39C18.77 12.63 18.77 12.68 18.97 12.68C19.14 12.68 19.46 12.64 20.03 12.64C20.65 12.64 21.20 12.68 21.35 12.68C21.52 12.68 21.52 12.61 21.52 12.40C21.52 12.24 21.52 12.18 21.35 12.18L20.27 12.18C20.27 12.18 20.26 12.18 20.26 12.17C20.27 11.87 21.04 9.90 21.39 9.02C21.46 8.83 21.48 8.79 21.69 8.79L24.51 8.79C24.65 8.79 24.65 8.81 24.72 9.03C24.99 9.77 25.70 11.89 25.70 12.17C25.70 12.18 25.69 12.18 25.69 12.18L24.92 12.18C24.70 12.18 24.68 12.19 24.68 12.39C24.68 12.63 24.70 12.68 24.86 12.68C25.19 12.68 26.05 12.64 26.47 12.64C26.89 12.64 27.57 12.68 27.78 12.68C27.92 12.68 27.93 12.61 27.93 12.40C27.93 12.24 27.92 12.18 27.78 12.18L27.29 12.18C27.19 12.18 26.17 9.34 25.61 7.78L23.93 3.07C23.91 3.00 23.84 2.94 23.76 2.94C23.63 2.94 23.53 3.16 23.45 3.35C23.30 3.71 23.06 3.84 22.95 4.13L21.46 7.57C21.28 8.01 19.57 12.18 19.45 12.18L19.03 12.18C18.80 12.18 18.77 12.19 18.77 12.39ZM21.67 8.33C21.67 8.30 21.70 8.23 21.74 8.13L23.11 4.77C23.16 4.66 23.18 4.61 23.21 4.61C23.23 4.61 23.24 4.63 23.28 4.77L24.44 8.18C24.47 8.25 24.49 8.29 24.49 8.32C24.49 8.36 24.46 8.37 24.36 8.37L21.85 8.37C21.67 8.37 21.67 8.34 21.67 8.33ZM34.02 5.01C34.02 5.17 34.20 5.17 34.33 5.17C34.48 5.17 34.52 5.15 34.54 4.97L34.65 3.89C34.66 3.81 35.21 3.75 35.97 3.75L37.95 3.75C38.01 3.75 38.04 4.35 38.04 4.97C38.04 6.43 37.98 12.18 37.86 12.18L36.99 12.18C36.76 12.18 36.72 12.19 36.72 12.39C36.72 12.63 36.74 12.68 36.93 12.68C37.25 12.68 38.23 12.64 38.65 12.64C39.07 12.64 40.01 12.68 40.33 12.68C40.50 12.68 40.53 12.61 40.53 12.40C40.53 12.24 40.50 12.18 40.33 12.18L39.34 12.18C39.31 12.18 39.31 11.76 39.31 11.31C39.31 9.56 39.40 5.96 39.40 5.92C39.41 5.18 39.41 3.75 39.51 3.75L41.12 3.75C41.83 3.75 42.66 3.78 42.66 3.85C42.66 3.99 42.62 4.90 42.62 4.97C42.62 5.12 42.69 5.17 42.87 5.17C43.06 5.17 43.13 5.17 43.13 5.03C43.13 3.93 43.19 3.40 43.19 3.14C43.19 2.94 43.11 2.94 42.91 2.94C42.76 2.94 42.70 2.98 42.69 3.16C42.69 3.23 42.04 3.28 41.20 3.28L36.20 3.28C35.55 3.28 34.73 3.28 34.73 3.21L34.73 3.07C34.73 2.94 34.61 2.94 34.51 2.94C34.29 2.94 34.26 3.00 34.24 3.19C34.19 3.89 34.02 4.97 34.02 5.01ZM50.95 12.39C50.95 12.63 50.95 12.68 51.14 12.68C51.46 12.68 52.40 12.64 52.82 12.64C53.24 12.64 54.07 12.68 54.39 12.68C54.56 12.68 54.56 12.61 54.56 12.40C54.56 12.24 54.56 12.18 54.39 12.18L53.47 12.18C53.38 12.18 53.34 9.93 53.34 8.20C53.34 8.01 53.34 8.01 53.47 8.01L58.70 8.01C58.77 8.01 58.79 8.01 58.79 8.18L58.79 9.91C58.79 11.05 58.77 12.18 58.72 12.18L57.95 12.18C57.72 12.18 57.68 12.19 57.68 12.39C57.68 12.63 57.69 12.68 57.89 12.68C58.21 12.68 59.05 12.64 59.47 12.64C59.89 12.64 60.48 12.68 60.80 12.68C60.97 12.68 60.98 12.61 60.98 12.40C60.98 12.24 60.97 12.18 60.80 12.18L60.06 12.18C60.02 12.18 60.00 9.27 60.00 7.04C60.00 5.40 60.00 3.70 60.05 3.70L60.66 3.70C60.89 3.70 60.93 3.68 60.93 3.49C60.93 3.25 60.91 3.19 60.72 3.19C60.58 3.19 59.95 3.23 59.36 3.23C58.69 3.23 58.09 3.19 57.86 3.19C57.67 3.19 57.64 3.22 57.64 3.44C57.64 3.67 57.71 3.70 57.88 3.70L58.67 3.70C58.73 3.70 58.79 4.79 58.79 5.71L58.79 7.42C58.79 7.59 58.79 7.59 58.62 7.59L53.51 7.59C53.34 7.59 53.34 7.59 53.34 7.38C53.34 6.96 53.33 6.23 53.33 5.53C53.33 4.66 53.34 3.70 53.40 3.70L54.17 3.70C54.39 3.70 54.43 3.68 54.43 3.49C54.43 3.25 54.42 3.19 54.22 3.19C53.90 3.19 53.31 3.23 52.71 3.23C52.12 3.23 51.63 3.19 51.41 3.19C51.23 3.19 51.13 3.21 51.13 3.44C51.13 3.68 51.24 3.70 51.41 3.70L52.02 3.70C52.08 3.70 52.09 5.59 52.09 7.18L52.09 8.61C52.09 10.08 52.08 12.18 52.01 12.18L51.20 12.18C50.97 12.18 50.95 12.19 50.95 12.39ZM68.88 12.39C68.88 12.63 68.88 12.68 69.08 12.68C69.24 12.68 69.57 12.64 70.14 12.64C70.76 12.64 71.30 12.68 71.46 12.68C71.62 12.68 71.62 12.61 71.62 12.40C71.62 12.24 71.62 12.18 71.46 12.18L70.38 12.18C70.38 12.18 70.36 12.18 70.36 12.17C70.38 11.87 71.15 9.90 71.50 9.02C71.57 8.83 71.58 8.79 71.79 8.79L74.62 8.79C74.76 8.79 74.76 8.81 74.83 9.03C75.10 9.77 75.81 11.89 75.81 12.17C75.81 12.18 75.80 12.18 75.80 12.18L75.03 12.18C74.80 12.18 74.79 12.19 74.79 12.39C74.79 12.63 74.80 12.68 74.97 12.68C75.29 12.68 76.16 12.64 76.58 12.64C77 12.64 77.67 12.68 77.88 12.68C78.02 12.68 78.04 12.61 78.04 12.40C78.04 12.24 78.02 12.18 77.88 12.18L77.39 12.18C77.29 12.18 76.27 9.34 75.71 7.78L74.03 3.07C74.02 3.00 73.95 2.94 73.86 2.94C73.74 2.94 73.64 3.16 73.56 3.35C73.40 3.71 73.16 3.84 73.05 4.13L71.57 7.57C71.39 8.01 69.68 12.18 69.55 12.18L69.13 12.18C68.91 12.18 68.88 12.19 68.88 12.39ZM71.78 8.33C71.78 8.30 71.81 8.23 71.85 8.13L73.22 4.77C73.26 4.66 73.29 4.61 73.32 4.61C73.33 4.61 73.35 4.63 73.39 4.77L74.55 8.18C74.58 8.25 74.59 8.29 74.59 8.32C74.59 8.36 74.56 8.37 74.47 8.37L71.96 8.37C71.78 8.37 71.78 8.34 71.78 8.33ZM85.79 12.39C85.79 12.63 85.81 12.68 86.00 12.68C86.18 12.68 86.56 12.64 87.18 12.64C87.81 12.64 88.37 12.68 88.69 12.68C88.86 12.68 88.86 12.61 88.86 12.40C88.86 12.24 88.86 12.18 88.69 12.18L87.49 12.18C87.44 12.18 87.43 11.54 87.43 10.79C87.43 9.46 87.44 7.48 87.44 5.99C87.44 5.25 87.44 4.84 87.46 4.28C87.46 4.02 87.53 4.14 87.65 4.28L94.54 12.66C94.63 12.75 94.71 12.89 94.82 12.89C94.93 12.89 95.00 12.77 95.00 12.54C95.00 12.39 95.17 6.65 95.19 4.48C95.19 4.06 95.21 3.70 95.24 3.70L95.87 3.70C96.10 3.70 96.15 3.68 96.15 3.49C96.15 3.25 96.15 3.19 95.96 3.19C95.76 3.19 95.33 3.23 94.77 3.23C94.15 3.23 93.35 3.19 93.25 3.19C93.09 3.19 93.09 3.26 93.09 3.47C93.09 3.64 93.09 3.70 93.25 3.70L94.56 3.70C94.57 3.70 94.57 4.33 94.57 4.44C94.57 5.85 94.60 8.33 94.60 9.70L94.60 10.29C94.60 10.57 94.58 10.65 94.36 10.37L88.68 3.39C88.56 3.25 88.54 3.19 88.37 3.19C88.28 3.19 87.91 3.23 87.60 3.23C87.30 3.23 86.23 3.19 86.03 3.19C85.86 3.19 85.83 3.26 85.83 3.47C85.83 3.64 85.86 3.70 86.03 3.70L86.94 3.70C86.94 4.17 86.90 8.53 86.83 10.79C86.80 11.69 86.81 12.18 86.70 12.18L86.06 12.18C85.83 12.18 85.79 12.19 85.79 12.39ZM103.96 9.79C103.96 9.84 104.01 9.87 104.06 9.87C104.26 9.87 106.57 9.77 106.76 9.76C106.86 9.74 106.90 9.38 106.90 9.21C106.90 9.17 106.90 9.09 106.85 9.09C106.76 9.09 104.37 9.17 104.23 9.18C104.10 9.20 103.96 9.69 103.96 9.79ZM114.73 12.46C114.73 12.63 114.74 12.70 114.93 12.70C115.08 12.70 116.31 12.64 116.70 12.64C117.56 12.64 118.44 12.70 119.29 12.70C121.91 12.70 124.31 11.07 124.31 7.91C124.31 4.89 121.97 3.07 118.93 3.07C118.37 3.07 117.11 3.23 116.07 3.23C115.60 3.23 115.14 3.22 115.08 3.22C114.90 3.22 114.88 3.32 114.88 3.49C114.88 3.68 114.95 3.70 115.08 3.70L116.05 3.67C116.07 3.67 116.07 4.20 116.07 4.72C116.07 5.91 115.99 12.21 115.91 12.21L115.01 12.21C114.83 12.21 114.73 12.22 114.73 12.46ZM117.31 11.40C117.31 9.46 117.31 7.52 117.32 5.60C117.32 5.03 117.36 3.61 117.40 3.60C117.70 3.53 118.29 3.51 118.64 3.51C121.20 3.51 122.81 5.75 122.81 7.73C122.81 8.95 122.77 12.25 118.09 12.25C117.82 12.25 117.42 12.25 117.32 12.21C117.31 12.19 117.31 11.79 117.31 11.40ZM132.27 12.39C132.27 12.63 132.31 12.68 132.51 12.68C132.83 12.68 133.59 12.64 134.30 12.64C134.96 12.64 135.76 12.68 135.98 12.68C136.15 12.68 136.18 12.61 136.18 12.40C136.18 12.24 136.15 12.18 135.98 12.18L135.02 12.18C134.92 12.18 134.89 9.55 134.89 7.76L134.89 5.87C134.89 5.14 134.92 3.70 135.02 3.70L135.93 3.70C136.15 3.70 136.18 3.68 136.18 3.49C136.18 3.25 136.15 3.19 135.98 3.19C135.66 3.19 134.99 3.23 134.33 3.23C133.52 3.23 132.80 3.19 132.58 3.19C132.40 3.19 132.33 3.21 132.33 3.44C132.33 3.68 132.41 3.70 132.58 3.70L133.50 3.70C133.55 3.70 133.62 4.79 133.62 5.71L133.62 7.08C133.62 8.92 133.60 12.18 133.49 12.18L132.57 12.18C132.34 12.18 132.27 12.19 132.27 12.39ZM144.07 12.39C144.07 12.63 144.09 12.68 144.28 12.68C144.47 12.68 144.84 12.64 145.46 12.64C146.09 12.64 146.65 12.68 146.97 12.68C147.14 12.68 147.14 12.61 147.14 12.40C147.14 12.24 147.14 12.18 146.97 12.18L145.77 12.18C145.73 12.18 145.71 11.54 145.71 10.79C145.71 9.46 145.73 7.48 145.73 5.99C145.73 5.25 145.73 4.84 145.74 4.28C145.74 4.02 145.81 4.14 145.94 4.28L152.82 12.66C152.91 12.75 152.99 12.89 153.10 12.89C153.22 12.89 153.29 12.77 153.29 12.54C153.29 12.39 153.45 6.65 153.47 4.48C153.47 4.06 153.50 3.70 153.52 3.70L154.15 3.70C154.38 3.70 154.43 3.68 154.43 3.49C154.43 3.25 154.43 3.19 154.24 3.19C154.04 3.19 153.61 3.23 153.05 3.23C152.43 3.23 151.63 3.19 151.54 3.19C151.37 3.19 151.37 3.26 151.37 3.47C151.37 3.64 151.37 3.70 151.54 3.70L152.84 3.70C152.85 3.70 152.85 4.33 152.85 4.44C152.85 5.85 152.88 8.33 152.88 9.70L152.88 10.29C152.88 10.57 152.87 10.65 152.64 10.37L146.96 3.39C146.85 3.25 146.82 3.19 146.65 3.19C146.57 3.19 146.19 3.23 145.88 3.23C145.59 3.23 144.51 3.19 144.31 3.19C144.14 3.19 144.12 3.26 144.12 3.47C144.12 3.64 144.14 3.70 144.31 3.70L145.22 3.70C145.22 4.17 145.18 8.53 145.11 10.79C145.08 11.69 145.10 12.18 144.98 12.18L144.34 12.18C144.12 12.18 144.07 12.19 144.07 12.39ZM162.47 12.39C162.47 12.63 162.47 12.68 162.67 12.68C162.99 12.68 163.93 12.64 164.35 12.64C164.77 12.64 165.59 12.68 165.91 12.68C166.08 12.68 166.08 12.61 166.08 12.40C166.08 12.24 166.08 12.18 165.91 12.18L164.99 12.18C164.91 12.18 164.86 9.93 164.86 8.20C164.86 8.01 164.86 8.01 164.99 8.01L170.23 8.01C170.30 8.01 170.31 8.01 170.31 8.18L170.31 9.91C170.31 11.05 170.30 12.18 170.24 12.18L169.47 12.18C169.25 12.18 169.20 12.19 169.20 12.39C169.20 12.63 169.22 12.68 169.41 12.68C169.74 12.68 170.58 12.64 171.00 12.64C171.42 12.64 172.00 12.68 172.33 12.68C172.49 12.68 172.51 12.61 172.51 12.40C172.51 12.24 172.49 12.18 172.33 12.18L171.58 12.18C171.54 12.18 171.53 9.27 171.53 7.04C171.53 5.40 171.53 3.70 171.57 3.70L172.19 3.70C172.41 3.70 172.45 3.68 172.45 3.49C172.45 3.25 172.44 3.19 172.24 3.19C172.10 3.19 171.47 3.23 170.88 3.23C170.21 3.23 169.61 3.19 169.39 3.19C169.19 3.19 169.16 3.22 169.16 3.44C169.16 3.67 169.23 3.70 169.40 3.70L170.20 3.70C170.25 3.70 170.31 4.79 170.31 5.71L170.31 7.42C170.31 7.59 170.31 7.59 170.14 7.59L165.03 7.59C164.86 7.59 164.86 7.59 164.86 7.38C164.86 6.96 164.85 6.23 164.85 5.53C164.85 4.66 164.86 3.70 164.92 3.70L165.69 3.70C165.91 3.70 165.96 3.68 165.96 3.49C165.96 3.25 165.94 3.19 165.75 3.19C165.42 3.19 164.84 3.23 164.23 3.23C163.65 3.23 163.16 3.19 162.93 3.19C162.75 3.19 162.65 3.21 162.65 3.44C162.65 3.68 162.76 3.70 162.93 3.70L163.55 3.70C163.60 3.70 163.62 5.59 163.62 7.18L163.62 8.61C163.62 10.08 163.60 12.18 163.53 12.18L162.72 12.18C162.50 12.18 162.47 12.19 162.47 12.39ZM180.32 9.79C180.32 9.84 180.36 9.87 180.42 9.87C180.61 9.87 182.92 9.77 183.12 9.76C183.22 9.74 183.26 9.38 183.26 9.21C183.26 9.17 183.26 9.09 183.20 9.09C183.12 9.09 180.73 9.17 180.59 9.18C180.46 9.20 180.32 9.69 180.32 9.79ZM191.09 12.46C191.09 12.63 191.10 12.70 191.28 12.70C191.44 12.70 192.67 12.64 193.06 12.64C193.91 12.64 194.80 12.70 195.65 12.70C198.27 12.70 200.66 11.07 200.66 7.91C200.66 4.89 198.32 3.07 195.29 3.07C194.73 3.07 193.47 3.23 192.43 3.23C191.95 3.23 191.49 3.22 191.44 3.22C191.25 3.22 191.24 3.32 191.24 3.49C191.24 3.68 191.31 3.70 191.44 3.70L192.40 3.67C192.43 3.67 192.43 4.20 192.43 4.72C192.43 5.91 192.35 12.21 192.26 12.21L191.37 12.21C191.18 12.21 191.09 12.22 191.09 12.46ZM193.66 11.40C193.66 9.46 193.66 7.52 193.68 5.60C193.68 5.03 193.72 3.61 193.76 3.60C194.05 3.53 194.64 3.51 194.99 3.51C197.55 3.51 199.16 5.75 199.16 7.73C199.16 8.95 199.12 12.25 194.45 12.25C194.18 12.25 193.77 12.25 193.68 12.21C193.66 12.19 193.66 11.79 193.66 11.40ZM208.77 12.39C208.77 12.63 208.80 12.68 208.99 12.68C209.31 12.68 210.28 12.64 210.70 12.64C211.12 12.64 215.63 12.68 215.95 12.68C216.08 12.68 216.23 12.66 216.23 12.49C216.23 12.07 216.27 11.23 216.27 10.53C216.27 10.39 216.12 10.39 215.99 10.39C215.88 10.39 215.75 10.39 215.75 10.51C215.74 11.06 215.74 11.41 215.71 11.76C215.68 12.01 215.68 12.04 215.59 12.04C215.43 12.04 212.80 12.08 211.30 12.08C211.23 12.08 211.19 10.11 211.15 8.26C211.15 8.06 211.19 8.09 211.33 8.09L213.61 8.09C214.31 8.09 214.34 8.20 214.34 8.30L214.34 9.00C214.34 9.14 214.52 9.14 214.63 9.14C214.73 9.14 214.86 9.13 214.86 9.02C214.86 8.83 214.83 8.33 214.83 7.83C214.83 7.32 214.86 6.83 214.86 6.71C214.86 6.59 214.72 6.58 214.62 6.58C214.51 6.58 214.34 6.59 214.34 6.72L214.34 7.45C214.34 7.62 213.89 7.63 213.61 7.63L211.27 7.63C211.16 7.63 211.15 7.63 211.15 7.45C211.13 6.75 211.12 6.06 211.12 5.46C211.12 5.12 211.12 3.71 211.20 3.71C212.44 3.71 214.94 3.75 214.94 3.81C214.94 3.99 214.90 4.83 214.90 4.89C214.90 5.04 214.97 5.10 215.15 5.10C215.35 5.10 215.42 5.08 215.42 4.94C215.42 3.85 215.47 3.36 215.47 3.09C215.47 2.91 215.39 2.90 215.19 2.90C215.00 2.90 215.00 2.95 214.97 3.11C214.96 3.25 215.03 3.25 214.12 3.25C213.50 3.25 211.36 3.29 210.59 3.29C210.10 3.29 209.16 3.25 209.06 3.25C208.94 3.25 208.88 3.30 208.88 3.49C208.88 3.72 208.95 3.74 209.12 3.74L209.78 3.74C209.83 3.74 209.90 4.79 209.90 5.71C209.90 5.80 209.96 8.27 209.96 9.83L209.96 11.17C209.96 11.84 209.93 12.18 209.90 12.18L209.05 12.18C208.82 12.18 208.77 12.21 208.77 12.39ZM223.82 3.51C223.82 3.75 223.92 3.77 224.08 3.77L224.52 3.77C224.60 3.77 227.39 10.99 227.43 11.07C227.92 12.18 228.02 12.99 228.23 12.99C228.49 12.99 228.55 12.67 228.83 12.26C228.98 12.04 229.07 12.01 229.22 11.66L232.46 4.06C232.57 3.81 232.55 3.77 232.92 3.77C233.14 3.77 233.21 3.75 233.21 3.56C233.21 3.32 233.17 3.26 232.97 3.26C232.83 3.26 232.30 3.30 231.88 3.30C231.46 3.30 230.64 3.26 230.41 3.26C230.22 3.26 230.16 3.29 230.16 3.51C230.16 3.75 230.29 3.77 230.45 3.77L231.45 3.77C231.52 3.77 231.53 3.81 231.53 3.95C231.53 4.63 229.85 8.72 229.12 10.63C228.98 10.99 228.90 11.17 228.86 11.17C228.82 11.17 228.72 10.98 228.58 10.60C228.00 9.10 226.87 6.01 226.35 4.49C226.27 4.27 226.18 3.93 226.18 3.79L226.18 3.77L227.16 3.77C227.39 3.77 227.46 3.75 227.46 3.56C227.46 3.32 227.42 3.26 227.22 3.26C226.90 3.26 225.82 3.30 225.40 3.30C224.98 3.30 224.27 3.26 224.08 3.26C223.90 3.26 223.82 3.28 223.82 3.51Z"></path></g></svg>